<svg viewBox="0 0 125 37" fill="none" xmlns="http://www.w3.org/2000/svg">
    <g clip-path="url(#clip0_4_281)">
    <path d="M26.8791 7.41997C26.8586 7.23504 26.6942 7.15285 26.5708 7.13231C26.4475 7.11176 23.981 7.09121 23.981 7.09121C23.981 7.09121 21.905 5.07762 21.6994 4.87215C21.4939 4.66668 21.1033 4.72832 20.9389 4.76941C20.9389 4.76941 20.5484 4.89269 19.8906 5.09816C19.7879 4.74887 19.6234 4.31738 19.3973 3.88589C18.6574 2.46816 17.5885 1.72847 16.273 1.72847C16.1908 1.72847 16.0881 1.72847 16.0058 1.74901C15.9647 1.70792 15.9236 1.66683 15.8825 1.60519C15.307 0.988779 14.5876 0.701122 13.7243 0.721669C12.0388 0.762763 10.3739 1.97503 8.99677 4.153C8.03071 5.67348 7.3113 7.58434 7.10575 9.06372C5.17364 9.65958 3.81704 10.0705 3.79649 10.0911C2.83043 10.3993 2.78932 10.4198 2.66599 11.3444C2.56322 12.0225 0.0144653 31.7681 0.0144653 31.7681L21.4117 35.4665L30.6817 33.1653C30.6817 33.1653 26.8997 7.58434 26.8791 7.41997ZM18.8218 5.42691C18.3285 5.57074 17.7735 5.75566 17.1569 5.94059C17.1363 5.09816 17.0336 3.90644 16.643 2.8791C17.938 3.12566 18.5546 4.56394 18.8218 5.42691ZM16.0469 6.28988C14.9165 6.63918 13.7037 7.00903 12.4705 7.39942C12.8199 6.08442 13.4776 4.76941 14.2793 3.90644C14.5876 3.57769 14.9987 3.22839 15.492 3.02292C15.9647 3.98863 16.0469 5.36527 16.0469 6.28988ZM13.7448 1.85175C14.1354 1.85175 14.4643 1.93394 14.752 2.11886C14.2998 2.34488 13.8476 2.69417 13.4365 3.14621C12.3677 4.29683 11.5455 6.06387 11.2166 7.78981C10.1889 8.09801 9.20231 8.40622 8.27736 8.69387C8.89399 5.98168 11.155 1.93394 13.7448 1.85175Z" fill="#95BF47"/>
    <path d="M26.5708 7.13228C26.4475 7.11174 23.9809 7.09119 23.9809 7.09119C23.9809 7.09119 21.9049 5.07759 21.6994 4.87212C21.6172 4.78993 21.5144 4.74884 21.4116 4.74884V35.4665L30.6817 33.1652C30.6817 33.1652 26.8997 7.60486 26.8791 7.41994C26.838 7.23502 26.6941 7.15283 26.5708 7.13228Z" fill="#5E8E3E"/>
    <path d="M16.273 11.8992L15.2042 15.9264C15.2042 15.9264 14.012 15.3716 12.5732 15.4743C10.4766 15.5976 10.4561 16.9126 10.4766 17.2619C10.6 19.07 15.3275 19.4604 15.5947 23.6726C15.8002 27.0012 13.827 29.2613 10.9905 29.4462C7.57846 29.6517 5.70801 27.6587 5.70801 27.6587L6.42741 24.5972C6.42741 24.5972 8.31842 26.0149 9.8189 25.9327C10.8055 25.8711 11.1549 25.0697 11.1138 24.4944C10.9699 22.1521 7.10571 22.2754 6.85906 18.4331C6.65351 15.1867 8.79118 11.8992 13.4981 11.591C15.3481 11.4266 16.273 11.8992 16.273 11.8992Z" fill="white"/>
    <path d="M43.2405 20.4878C42.1716 19.9125 41.6167 19.4193 41.6167 18.7413C41.6167 17.8783 42.3772 17.3236 43.5899 17.3236C44.9876 17.3236 46.2209 17.8989 46.2209 17.8989L47.2075 14.899C47.2075 14.899 46.3031 14.2004 43.6516 14.2004C39.9518 14.2004 37.3824 16.3168 37.3824 19.2961C37.3824 20.9809 38.5746 22.2754 40.1779 23.2C41.4728 23.9397 41.925 24.4533 41.925 25.2341C41.925 26.0354 41.2878 26.6724 40.0751 26.6724C38.2868 26.6724 36.6014 25.7478 36.6014 25.7478L35.5531 28.7476C35.5531 28.7476 37.1152 29.7955 39.7257 29.7955C43.5282 29.7955 46.262 27.9258 46.262 24.5561C46.2825 22.7274 44.9054 21.4329 43.2405 20.4878ZM58.4097 14.1593C56.5392 14.1593 55.0593 15.0428 53.9288 16.3989L53.8671 16.3784L55.4909 7.87197H51.2567L47.1458 29.5079H51.38L52.7983 22.111C53.3533 19.3166 54.7921 17.5907 56.1487 17.5907C57.0942 17.5907 57.4642 18.2276 57.4642 19.1522C57.4642 19.7275 57.4025 20.4467 57.2792 21.022L55.6759 29.4873H59.9101L61.5751 20.7343C61.76 19.8097 61.8834 18.7002 61.8834 17.9811C61.8834 15.6182 60.609 14.1593 58.4097 14.1593ZM71.4617 14.1593C66.3642 14.1593 62.9933 18.7618 62.9933 23.8986C62.9933 27.1861 65.0282 29.8161 68.8308 29.8161C73.8255 29.8161 77.217 25.3369 77.217 20.0768C77.1964 17.0564 75.4082 14.1593 71.4617 14.1593ZM69.3652 26.5697C67.9264 26.5697 67.3097 25.3369 67.3097 23.8164C67.3097 21.3918 68.5636 17.4263 70.8657 17.4263C72.3661 17.4263 72.8594 18.7207 72.8594 19.9741C72.8594 22.5836 71.6056 26.5697 69.3652 26.5697ZM88.0286 14.1593C85.1716 14.1593 83.5478 16.6661 83.5478 16.6661H83.4861L83.7328 14.3853H79.9919C79.8069 15.9264 79.478 18.2482 79.1286 19.9947L76.1893 35.487H80.4235L81.5951 29.2202H81.6773C81.6773 29.2202 82.5406 29.775 84.1644 29.775C89.1386 29.775 92.3862 24.6794 92.3862 19.5221C92.4067 16.7071 91.1324 14.1593 88.0286 14.1593ZM83.9794 26.6313C82.8695 26.6313 82.2323 26.0149 82.2323 26.0149L82.9311 22.0493C83.4244 19.4193 84.8016 17.6523 86.2815 17.6523C87.5764 17.6523 87.967 18.844 87.967 19.9947C87.967 22.7274 86.3432 26.6313 83.9794 26.6313ZM98.4498 8.09799C97.0932 8.09799 96.0243 9.16643 96.0243 10.5636C96.0243 11.817 96.826 12.68 98.0181 12.68H98.0798C99.3953 12.68 100.546 11.7964 100.567 10.2143C100.567 8.9815 99.7447 8.09799 98.4498 8.09799ZM92.5301 29.5079H96.7643L99.6419 14.5086H95.3666L92.5301 29.5079ZM110.412 14.4675H107.473L107.617 13.7689C107.864 12.3307 108.727 11.0362 110.125 11.0362C110.885 11.0362 111.481 11.2417 111.481 11.2417L112.303 7.93361C112.303 7.93361 111.563 7.56377 110.001 7.56377C108.501 7.56377 107 7.99525 105.849 8.9815C104.411 10.2143 103.732 11.9814 103.383 13.7689L103.259 14.4675H101.286L100.67 17.6523H102.643L100.402 29.5079H104.637L106.877 17.6523H109.796L110.412 14.4675ZM120.607 14.5086C120.607 14.5086 117.956 21.1864 116.764 24.8232H116.702C116.62 23.652 115.654 14.5086 115.654 14.5086H111.214L113.763 28.2956C113.824 28.6038 113.783 28.7887 113.681 28.9942C113.187 29.9394 112.365 30.864 111.379 31.542C110.577 32.1173 109.693 32.4872 108.974 32.7337L110.145 36.3295C111.009 36.1445 112.776 35.4459 114.297 34.0282C116.229 32.2201 118.018 29.4257 119.847 25.6245L125.027 14.5086H120.607Z" fill="black"/>
    </g>
    <defs>
    <clipPath id="clip0_4_281">
    <rect width="125" height="35.69" fill="white" transform="translate(0 0.660004)"/>
    </clipPath>
    </defs>
</svg>
