<svg viewBox="0 0 56 56" fill="none" xmlns="http://www.w3.org/2000/svg">
    <rect width="56" height="56" rx="14" fill="url(#paint0_linear_3612_66765)"/>
    <path fill-rule="evenodd" clip-rule="evenodd" d="M37.3333 33.6H31.9088C31.6891 34.2213 31.0965 34.6666 30.4 34.6666H25.6C24.9035 34.6666 24.3109 34.2213 24.0912 33.6H18.6667V35.7333C18.6667 36.0272 18.9061 36.2666 19.2 36.2666H36.8C37.0939 36.2666 37.3333 36.0272 37.3333 35.7333V33.6ZM19.7333 32H25.0666C25.361 32 25.6 32.2389 25.6 32.5333V33.0666H30.4V32.5333C30.4 32.2389 30.6389 32 30.9333 32H36.2666V19.7333H19.7333V32ZM38.9333 32.5333V35.7333C38.9333 36.9114 37.9781 37.8666 36.8 37.8666H19.2C18.0219 37.8666 17.0667 36.9114 17.0667 35.7333V32.5333C17.0667 32.2389 17.3056 32 17.6 32H18.1333V19.7333C18.1333 18.8496 18.8496 18.1333 19.7333 18.1333H36.2666C37.1504 18.1333 37.8666 18.8496 37.8666 19.7333V32H38.4C38.6944 32 38.9333 32.2389 38.9333 32.5333ZM26.6795 29.1408L24.8128 27.5408C24.4773 27.2533 24.4384 26.7482 24.7259 26.4128C25.0133 26.0768 25.5195 26.0384 25.8539 26.3258L27.1397 27.4277L30.6165 23.7194C30.9184 23.3973 31.424 23.3802 31.7472 23.6832C32.0693 23.985 32.0859 24.4912 31.7835 24.8138L27.7835 29.0805C27.6267 29.248 27.4133 29.3333 27.2 29.3333C27.0149 29.3333 26.8299 29.2698 26.6795 29.1408Z" fill="black"/>
    <defs>
    <linearGradient id="paint0_linear_3612_66765" x1="-6" y1="-17" x2="72.8482" y2="21.4485" gradientUnits="userSpaceOnUse">
    <stop stop-color="#5FD5B6"/>
    <stop offset="1" stop-color="#4DFD88"/>
    </linearGradient>
    </defs>
</svg>
